<svg width="73" height="13" viewBox="0 0 73 13" fill="none" xmlns="http://www.w3.org/2000/svg">
<path d="M3.078 10.26H7.11V12.636H0V0H3.078V10.26Z" fill="black"/>
<path d="M18.0461 7.452C18.0461 7.74 18.0281 8.04 17.9921 8.352H11.0261C11.0741 8.976 11.2721 9.456 11.6201 9.792C11.9801 10.116 12.4181 10.278 12.9341 10.278C13.7021 10.278 14.2361 9.954 14.5361 9.306H17.8121C17.6441 9.966 17.3381 10.56 16.8941 11.088C16.4621 11.616 15.9161 12.03 15.2561 12.33C14.5961 12.63 13.8581 12.78 13.0421 12.78C12.0581 12.78 11.1821 12.57 10.4141 12.15C9.64613 11.73 9.04613 11.13 8.61413 10.35C8.18213 9.57 7.96613 8.658 7.96613 7.614C7.96613 6.57 8.17612 5.658 8.59612 4.878C9.02812 4.098 9.62813 3.498 10.3961 3.078C11.1641 2.658 12.0461 2.448 13.0421 2.448C14.0141 2.448 14.8781 2.652 15.6341 3.06C16.3901 3.468 16.9781 4.05 17.3981 4.806C17.8301 5.562 18.0461 6.444 18.0461 7.452ZM14.8961 6.642C14.8961 6.114 14.7161 5.694 14.3561 5.382C13.9961 5.07 13.5461 4.914 13.0061 4.914C12.4901 4.914 12.0521 5.064 11.6921 5.364C11.3441 5.664 11.1281 6.09 11.0441 6.642H14.8961Z" fill="black"/>
<path d="M25.6099 12.636L23.6839 9.846L22.0639 12.636H18.7339L22.0459 7.506L18.6439 2.592H22.0999L24.0259 5.364L25.6459 2.592H28.9759L25.6099 7.65L29.0659 12.636H25.6099Z" fill="black"/>
<path d="M41.556 12.636H38.478L33.33 4.842V12.636H30.252V0H33.33L38.478 7.83V0H41.556V12.636Z" fill="black"/>
<path d="M48.3591 12.78C47.3751 12.78 46.4871 12.57 45.6951 12.15C44.9151 11.73 44.2971 11.13 43.8411 10.35C43.3971 9.57 43.1751 8.658 43.1751 7.614C43.1751 6.582 43.4031 5.676 43.8591 4.896C44.3151 4.104 44.9391 3.498 45.7311 3.078C46.5231 2.658 47.4111 2.448 48.3951 2.448C49.3791 2.448 50.2671 2.658 51.0591 3.078C51.8511 3.498 52.4751 4.104 52.9311 4.896C53.3871 5.676 53.6151 6.582 53.6151 7.614C53.6151 8.646 53.3811 9.558 52.9131 10.35C52.4571 11.13 51.8271 11.73 51.0231 12.15C50.2311 12.57 49.3431 12.78 48.3591 12.78ZM48.3591 10.116C48.9471 10.116 49.4451 9.9 49.8531 9.468C50.2731 9.036 50.4831 8.418 50.4831 7.614C50.4831 6.81 50.2791 6.192 49.8711 5.76C49.4751 5.328 48.9831 5.112 48.3951 5.112C47.7951 5.112 47.2971 5.328 46.9011 5.76C46.5051 6.18 46.3071 6.798 46.3071 7.614C46.3071 8.418 46.4991 9.036 46.8831 9.468C47.2791 9.9 47.7711 10.116 48.3591 10.116Z" fill="black"/>
<path d="M60.846 10.026V12.636H59.28C58.164 12.636 57.294 12.366 56.67 11.826C56.046 11.274 55.734 10.38 55.734 9.144V5.148H54.51V2.592H55.734V0.144H58.812V2.592H60.828V5.148H58.812V9.18C58.812 9.48 58.884 9.696 59.028 9.828C59.172 9.96 59.412 10.026 59.748 10.026H60.846Z" fill="black"/>
<path d="M72.0285 7.452C72.0285 7.74 72.0106 8.04 71.9745 8.352H65.0085C65.0565 8.976 65.2545 9.456 65.6025 9.792C65.9625 10.116 66.4006 10.278 66.9165 10.278C67.6845 10.278 68.2185 9.954 68.5185 9.306H71.7945C71.6265 9.966 71.3205 10.56 70.8765 11.088C70.4445 11.616 69.8986 12.03 69.2385 12.33C68.5785 12.63 67.8405 12.78 67.0245 12.78C66.0405 12.78 65.1645 12.57 64.3965 12.15C63.6285 11.73 63.0285 11.13 62.5965 10.35C62.1645 9.57 61.9485 8.658 61.9485 7.614C61.9485 6.57 62.1586 5.658 62.5785 4.878C63.0105 4.098 63.6105 3.498 64.3785 3.078C65.1465 2.658 66.0285 2.448 67.0245 2.448C67.9965 2.448 68.8605 2.652 69.6165 3.06C70.3725 3.468 70.9605 4.05 71.3805 4.806C71.8125 5.562 72.0285 6.444 72.0285 7.452ZM68.8785 6.642C68.8785 6.114 68.6985 5.694 68.3385 5.382C67.9785 5.07 67.5285 4.914 66.9885 4.914C66.4725 4.914 66.0345 5.064 65.6745 5.364C65.3265 5.664 65.1105 6.09 65.0266 6.642H68.8785Z" fill="black"/>
</svg>
